<?xml version="1.0" encoding="UTF-8"?>
<svg id="Capa_1" data-name="Capa 1" xmlns="http://www.w3.org/2000/svg" viewBox="0 0 200 90">
  <defs>
    <style>
      .cls-1 {
        fill: #cf48f3;
      }

      .cls-2 {
        fill: #abe236;
      }
    </style>
  </defs>
  <g>
    <path class="cls-1" d="M10.44,43.91l4.97-31.43c.57-3.36,2.08-6.04,4.55-8.04,2.47-2,5.54-3,9.22-3h18.81l-1.64,10.25h-14.8c-.85,0-1.6.28-2.24.85-.65.57-1.03,1.27-1.15,2.12l-.73,4.67h15.83l-1.58,10.01h-15.83l-2.31,14.56h-13.1Z"/>
    <path class="cls-1" d="M61.69,44.64c-3.24,0-6.18-.53-8.83-1.58-2.65-1.05-4.93-2.5-6.86-4.34-1.92-1.84-3.41-4-4.46-6.49-1.05-2.49-1.58-5.15-1.58-7.98,0-3.4.63-6.53,1.88-9.4,1.25-2.87,3-5.37,5.25-7.49,2.24-2.12,4.83-3.76,7.77-4.91,2.93-1.15,6.1-1.73,9.49-1.73s6.3.53,8.95,1.58c2.65,1.05,4.91,2.51,6.79,4.37,1.88,1.86,3.33,4.02,4.34,6.49,1.01,2.47,1.52,5.14,1.52,8.01,0,3.4-.61,6.52-1.82,9.37-1.21,2.85-2.91,5.34-5.1,7.46-2.18,2.12-4.75,3.76-7.71,4.91-2.95,1.15-6.17,1.73-9.65,1.73ZM62.11,34.09c1.58,0,3.02-.33,4.34-1,1.31-.67,2.45-1.58,3.4-2.73.95-1.15,1.68-2.49,2.18-4,.51-1.52.76-3.1.76-4.76,0-2.22-.42-4.1-1.24-5.64-.83-1.54-1.92-2.7-3.28-3.49-1.36-.79-2.84-1.18-4.46-1.18s-3.02.33-4.34,1c-1.32.67-2.45,1.59-3.4,2.76-.95,1.17-1.68,2.51-2.18,4-.51,1.5-.76,3.07-.76,4.73,0,2.22.41,4.11,1.24,5.64.83,1.54,1.92,2.7,3.28,3.49,1.35.79,2.84,1.18,4.46,1.18Z"/>
    <path class="cls-1" d="M100.34,44.64c-3.24,0-6.18-.53-8.83-1.58-2.65-1.05-4.93-2.5-6.86-4.34-1.92-1.84-3.41-4-4.46-6.49-1.05-2.49-1.58-5.15-1.58-7.98,0-3.4.63-6.53,1.88-9.4,1.25-2.87,3-5.37,5.25-7.49,2.24-2.12,4.83-3.76,7.77-4.91,2.93-1.15,6.1-1.73,9.49-1.73s6.3.53,8.95,1.58c2.65,1.05,4.91,2.51,6.79,4.37,1.88,1.86,3.33,4.02,4.34,6.49,1.01,2.47,1.52,5.14,1.52,8.01,0,3.4-.61,6.52-1.82,9.37-1.21,2.85-2.91,5.34-5.1,7.46-2.18,2.12-4.75,3.76-7.71,4.91-2.95,1.15-6.17,1.73-9.65,1.73ZM100.77,34.09c1.58,0,3.02-.33,4.34-1,1.31-.67,2.45-1.58,3.4-2.73.95-1.15,1.68-2.49,2.18-4,.51-1.52.76-3.1.76-4.76,0-2.22-.42-4.1-1.24-5.64-.83-1.54-1.92-2.7-3.28-3.49-1.36-.79-2.84-1.18-4.46-1.18s-3.02.33-4.34,1c-1.32.67-2.45,1.59-3.4,2.76-.95,1.17-1.68,2.51-2.18,4-.51,1.5-.76,3.07-.76,4.73,0,2.22.41,4.11,1.24,5.64.83,1.54,1.92,2.7,3.28,3.49,1.35.79,2.84,1.18,4.46,1.18Z"/>
    <path class="cls-1" d="M118.81,43.91L125.48,1.45h16.56c3.15,0,5.98.48,8.46,1.43,2.49.95,4.6,2.3,6.34,4.03,1.74,1.74,3.06,3.77,3.97,6.1.91,2.33,1.37,4.86,1.37,7.61s-.42,5.38-1.24,7.77c-.83,2.39-2.01,4.54-3.55,6.46-1.54,1.92-3.36,3.56-5.46,4.91-2.1,1.36-4.43,2.39-6.98,3.09-2.55.71-5.26,1.06-8.13,1.06h-18.02ZM133.55,33.66h4.19c1.78,0,3.37-.32,4.76-.97,1.4-.65,2.58-1.55,3.55-2.7s1.71-2.48,2.21-3.97c.51-1.5.76-3.11.76-4.85,0-1.86-.33-3.5-1-4.91-.67-1.42-1.59-2.53-2.76-3.34-1.17-.81-2.55-1.21-4.13-1.21h-4.19l-3.4,21.96Z"/>
    <path class="cls-1" d="M165.06,43.91l1.76-11.65c-3.11-1.13-5.46-2.93-7.04-5.4-1.58-2.47-2.37-5.3-2.37-8.49,0-.69.04-1.4.12-2.15.08-.75.18-1.45.3-2.09l2.06-12.68h12.62l-2.18,13.89c-.04.4-.09.79-.15,1.15-.06.36-.09.71-.09,1.03,0,1.62.46,2.89,1.39,3.82.93.93,2.2,1.4,3.82,1.4,1.13,0,2.15-.25,3.06-.76.91-.51,1.66-1.22,2.24-2.15.59-.93.98-2,1.18-3.22l2.37-15.17h12.62l-2.49,16.38c-.65,4.21-2.24,7.55-4.79,10.04s-5.74,4.14-9.59,4.94l-1.76,11.1h-13.1Z"/>
  </g>
  <g>
    <path class="cls-2" d="M36.21,89.28c-2.63,0-4.97-.48-7.01-1.43-2.04-.95-3.64-2.3-4.79-4.03-1.15-1.74-1.73-3.78-1.73-6.13,0-.53.04-1.13.12-1.82.08-.69.14-1.23.18-1.64l2.24-14.5c.04-.2.07-.41.09-.64.02-.22.03-.45.03-.7,0-.57-.19-1.03-.58-1.4-.38-.36-.88-.55-1.49-.55-.49,0-.94.1-1.36.3-.42.2-.78.5-1.06.88-.28.39-.47.84-.55,1.37l-4.61,29.48H3.21l4.67-29.97c.44-2.75,1.47-5.12,3.06-7.1,1.6-1.98,3.58-3.51,5.95-4.58,2.37-1.07,4.88-1.61,7.55-1.61s4.95.51,6.98,1.52c2.02,1.01,3.62,2.42,4.79,4.22,1.17,1.8,1.76,3.91,1.76,6.34,0,.53-.03,1.07-.09,1.64-.06.57-.13,1.05-.21,1.46l-2.31,14.38c-.04.2-.07.41-.09.64-.02.22-.03.43-.03.64,0,.65.21,1.15.64,1.52s.9.55,1.43.55c.44,0,.88-.1,1.3-.3.42-.2.79-.5,1.09-.88.3-.38.49-.84.58-1.37l4.67-29.54h12.44l-4.67,30.03c-.45,2.87-1.5,5.29-3.15,7.25-1.66,1.96-3.67,3.45-6.04,4.46-2.37,1.01-4.8,1.52-7.31,1.52Z"/>
    <path class="cls-2" d="M128.83,89.28c-2.95,0-5.53-.62-7.73-1.85-2.21-1.23-3.9-2.92-5.1-5.07-1.19-2.14-1.79-4.61-1.79-7.4,0-.69.04-1.37.12-2.03.08-.67.16-1.28.24-1.85l4-25.06h12.68l-4,25.42c-.04.32-.09.67-.15,1.03-.06.36-.09.69-.09.97,0,1.5.4,2.69,1.21,3.58.81.89,1.9,1.33,3.28,1.33.97,0,1.85-.24,2.64-.73.79-.49,1.46-1.17,2-2.06.55-.89.9-1.92,1.06-3.09l4.13-26.45h12.8l-4,25c-.04.36-.09.74-.15,1.12-.06.38-.09.74-.09,1.06,0,.93.17,1.76.52,2.49.34.73.87,1.28,1.58,1.67.71.38,1.59.58,2.64.58s1.91-.22,2.7-.67c.79-.44,1.45-1.09,1.97-1.94.52-.85.87-1.86,1.03-3.03l4.13-26.27h13.16l-4.12,27c-.49,3.32-1.63,6.2-3.43,8.65-1.8,2.45-4.06,4.33-6.76,5.64-2.71,1.31-6.25,1.97-9.52,1.97-1.74,0-3.36-.2-4.85-.61-1.5-.4-2.84-.99-4.03-1.76-1.19-.77-2.26-1.66-3.18-2.67-1.66,1.62-3.56,2.86-5.7,3.73-2.14.87-4.53,1.3-7.16,1.3Z"/>
    <path class="cls-2" d="M50.02,76.78c1.01,2.47,2.46,4.63,4.34,6.49,1.88,1.86,4.15,3.32,6.79,4.37,2.65,1.05,5.63,1.58,8.95,1.58h28.6c3.4,0,6.56-.58,9.49-1.73,2.93-1.15,5.52-2.79,7.77-4.91,2.24-2.12,3.99-4.62,5.25-7.49,1.25-2.87,1.88-6.01,1.88-9.4,0-2.83-.52-5.49-1.58-7.98-1.05-2.49-2.54-4.65-4.46-6.49-1.92-1.84-4.21-3.29-6.86-4.34-2.65-1.05-5.59-1.58-8.83-1.58h-28.6c-3.48,0-6.69.58-9.65,1.73-2.95,1.15-5.52,2.79-7.71,4.91-2.18,2.12-3.88,4.61-5.1,7.46-1.21,2.85-1.82,5.98-1.82,9.37,0,2.87.51,5.54,1.52,8.01ZM61.86,65.8c.13-.79.32-1.56.57-2.31.51-1.5,1.23-2.83,2.18-4,.95-1.17,2.08-2.09,3.4-2.76.33-.17.67-.31,1.01-.44,1.03-.38,2.14-.56,3.33-.56h28.6c1.62,0,3.1.39,4.46,1.18.68.39,1.29.88,1.84,1.46s1.03,1.26,1.44,2.02c.41.77.73,1.62.93,2.56.21.94.31,1.97.31,3.08,0,.83-.06,1.64-.19,2.43s-.32,1.57-.57,2.33c-.51,1.52-1.23,2.85-2.18,4-.95,1.15-2.08,2.06-3.4,2.73-.33.17-.67.31-1.01.44-.35.13-.7.23-1.06.31-.72.17-1.48.25-2.27.25h-18.93l-10.09,10.56.42-10.56c-1.21,0-2.35-.22-3.42-.67-.36-.15-.7-.32-1.04-.52-1.02-.59-1.88-1.39-2.61-2.41-.24-.34-.46-.7-.67-1.08-.83-1.54-1.24-3.42-1.24-5.64,0-.83.06-1.64.19-2.43Z"/>
  </g>
</svg>